<svg xmlns="http://www.w3.org/2000/svg" width="64" height="64" viewBox="0 0 64 64" fill="none">
  <defs>
    <linearGradient id="edgeLight" x1="32" y1="3" x2="32" y2="61" gradientUnits="userSpaceOnUse">
      <stop offset="0" stop-color="#EEDDA0"/>
      <stop offset="0.18" stop-color="#D8BF76"/>
      <stop offset="0.5" stop-color="#B38C45"/>
      <stop offset="0.82" stop-color="#D9BD72"/>
      <stop offset="1" stop-color="#E9D28F"/>
    </linearGradient>
    <linearGradient id="sideLight" x1="3" y1="32" x2="61" y2="32" gradientUnits="userSpaceOnUse">
      <stop offset="0" stop-color="#E6CF86"/>
      <stop offset="0.2" stop-color="#B78645"/>
      <stop offset="0.5" stop-color="#9A6F38"/>
      <stop offset="0.8" stop-color="#C79C58"/>
      <stop offset="1" stop-color="#E2C982"/>
    </linearGradient>
    <filter id="softGlow" x="0" y="0" width="64" height="64" filterUnits="userSpaceOnUse">
      <feGaussianBlur stdDeviation="0.7"/>
    </filter>
  </defs>

  <rect x="1.75" y="1.75" width="60.5" height="60.5" stroke="#4A3320" stroke-opacity="0.3" stroke-width="0.15"/>

  <g filter="url(#softGlow)" opacity="0.36">
    <rect x="2.75" y="2.75" width="58.5" height="58.5" stroke="#DFC884" stroke-width="0.15"/>
  </g>

  <rect x="2.75" y="2.75" width="58.5" height="58.5" stroke="#B99049" stroke-width="0.15" opacity="0.3"/>
  <rect x="2.75" y="2.75" width="58.5" height="58.5" stroke="url(#edgeLight)" stroke-width="0.15" opacity="1"/>

  <path d="M2.75 2.75L5.35 2.75" stroke="#F0DC9D" stroke-width="0.15" opacity="0.3"/>
  <path d="M2.75 2.75L2.75 5.35" stroke="#F0DC9D" stroke-width="0.15" opacity="0.3"/>
  <path d="M58.65 2.75L61.25 2.75" stroke="#F0DC9D" stroke-width="0.15" opacity="0.3"/>
  <path d="M61.25 2.75L61.25 5.35" stroke="#F0DC9D" stroke-width="0.15" opacity="0.3"/>
  <path d="M2.75 58.65L2.75 61.25" stroke="#E5CB84" stroke-width="0.15" opacity="0.3"/>
  <path d="M2.75 61.25L5.35 61.25" stroke="#E5CB84" stroke-width="0.15" opacity="0.3"/>
  <path d="M58.65 61.25L61.25 61.25" stroke="#E5CB84" stroke-width="0.15" opacity="0.3"/>
  <path d="M61.25 58.65L61.25 61.25" stroke="#E5CB84" stroke-width="0.15" opacity="0.3"/>
</svg>
